<?xml version="1.0" encoding="UTF-8"?>
<svg id="Layer_2" data-name="Layer 2" xmlns="http://www.w3.org/2000/svg" viewBox="0 0 103.99 119.3">
  <defs>
    <style>
      .cls-1 {
        fill: #f6e69a;
      }

      .cls-1, .cls-2, .cls-3, .cls-4 {
        stroke-width: 0px;
      }

      .cls-2 {
        fill: #ee4727;
      }

      .cls-3 {
        fill: #51351f;
      }

      .cls-4 {
        fill: #231f20;
      }
    </style>
  </defs>
  <g id="Layer_1-2" data-name="Layer 1">
    <g>
      <path class="cls-4" d="m29.54,5.34c-.37-.68-.86-1.21-1.32-1.83-.22-.3-.42-.6-.62-.91-.31-.46-.56-.63-1.11-.69-.37-.04-.75.3-.84.64-.24.92.64,1.65,1.23,2.25s1.18,1.09,2,1.41c.51.2.9-.46.67-.87h0Z"/>
      <path class="cls-4" d="m50.18,9.5c-.11.91-1.35,1.18-1.65.22-.12-.38-.25-.75-.4-1.11h0c-.28-.72-.6-1.41-.94-2.1-.01-.04-.03-.07-.05-.11-.84-1.45,1.44-2.77,2.23-1.31.25.47.45.96.59,1.47.13.43.21.88.25,1.33.05.54.04,1.08-.03,1.61Z"/>
      <path class="cls-4" d="m73.24,9.19c-.32-.09-.65-.17-.94-.34-.07-.04-.14-.09-.21-.14h0c-.19-.13-.37-.27-.55-.39-.6-.42-1.25-.86-1.49-1.58-.02-.06-.03-.13-.04-.19-.08-.67.63-1.18,1.27-1.04.48.11.89.47,1.24.86h.01c.14.15.27.31.4.46.23.26.51.52.7.82.07.12.13.25.18.39h0c.05.14.1.28.15.42.18.43-.33.84-.73.73Z"/>
      <path class="cls-4" d="m91.32,5.9c-.46-.83-.87-1.91-1.6-2.52-.44-.37-1.03-.51-1.56-.2-.48.28-.76.91-.59,1.45.33,1.02,1.22,1.88,1.88,2.72.36.46,1.14.42,1.56.09.46-.37.6-1,.31-1.53h0Z"/>
      <path class="cls-4" d="m92.14,24.14s0,0,0,0c-.59.78-1.29,1.46-2.11,1.98-.54.34-1.13.62-1.77.82-3.82,1.19-6.43-1.74-7.84-4.9-.18-.41-.36-.83-.53-1.24-.29-.68-.57-1.36-.87-2.03h-.01c-.47-1.09-.98-2.15-1.6-3.17-1.53-2.5-3.86-4.4-5.32-6.9h0s-.03-.06-.05-.09c-.28-.49.19-1.22.78-1.01.35.13.67.27.99.43h0c4.61,2.3,7.18,8.07,9.36,12.39,1.07,2.13,2.83,4.52,5.3,2.22,1.53-1.41,1.99-3.76,2.07-5.72.15-3.89-1.72-6.64-2.75-10.18-.1-.35-.09-.67.01-.94.04-.12.1-.23.18-.33h0c.34-.49,1.01-.72,1.65-.6.27.05.54.16.77.35.37.3.72.64,1.04,1.02h.01c3.64,4.25,4.25,13.12.68,17.89Z"/>
      <path class="cls-4" d="m79.89,20.81c-.16.34-.46.62-.88.74-4.33,1.28-9.33.56-13.81.4-4.52-.17-9.02-.45-13.46-1.32-.11-.02-.22-.04-.33-.06-1.62-.33-1.14-2.69.38-2.76.14-.01.27-.01.41-.01,4.65-.17,9.31.14,13.96.28,4.22.13,8.76-.44,12.85.69h.01c.95.28,1.22,1.3.87,2.04Z"/>
      <path class="cls-4" d="m90.15,44.06c-.05-.97-.83-1.93-1.88-1.87-16.75.89-33.44.52-50.17.07-.65-.02-.9.91-.33,1.22.14.08.29.15.44.22-.58.18-1.03.68-1,1.53.49,14.94,15.94,25.08,29.85,25.61,15.66.6,23.72-12.38,23.09-26.78Zm-23.09,22.5c-12-.42-24.88-8.84-26.52-21.33-.03-.24-.11-.46-.21-.65,6.25,2.14,14.2,1.2,20.49,1.28,8.49.12,16.99-.07,25.47.05-.88,10.87-6.86,21.08-19.23,20.65Z"/>
      <path class="cls-4" d="m101.95,113.93c-.32.64-.82.97-1.34,1.05-1.48.24-3.23-1.4-2.33-3.19.03-.06.06-.12.08-.18,3.52-7.3-.14-15.23-2.06-22.46-1.77-6.67-2.52-13.54-2.9-20.41-.41-7.37-.41-14.75-1-22.11-.53-6.66-2.32-13.77-2.37-20.5-.02-.81,0-1.61.05-2.4.05-.83,1.19-1.25,1.63-.44.15.28.3.56.43.85.02,0,0,0,0,0,3.27,6.58,3.87,15.31,4.45,22.48.64,7.97.6,15.97,1.13,23.94.55,8.34,2.36,16.03,4.57,24.05,1.82,6.58,2.8,12.99-.34,19.31Z"/>
      <path class="cls-4" d="m52.2,17.8c-.08.96-.23,1.91-.46,2.83-.58,2.32-1.69,4.47-3.45,6.18-2.99,2.91-7.53,3.68-10.43.18-1.88-2.29-2.12-5.39-2.77-8.16-.81-3.44-2.15-6.68-4.18-9.6-3.22-4.63-6.98-5-12.33-5.11-2.47-.04-10.96-2.11-12.5.71-1.05,1.89-.56,5.85-.67,7.98-.11,1.96-.21,3.92-.31,5.88-.23,4.56-.41,9.13-.55,13.7-.32,9.78-.49,19.57-.66,29.36-.16,9.13-.32,18.26-.6,27.39-.13,4.58-.37,9.14-.64,13.71-.24,3.85-.93,8.15.36,11.84.3.85.7,1.67,1.23,2.44.41.6-.51,1.27-.98.76-.32-.35-.61-.71-.88-1.08-3.53-5-2.13-12.08-2.01-17.88.21-9.46.43-18.92.56-28.38.27-18.92.31-37.86,1.37-56.76C2.52,9.81,1.55,1.66,6.76.27c3.55-.94,8.08.85,11.82.95,3.45.1,6.85-.46,9.91,1.47.15.09.3.19.44.31,1.1.74,2.1,1.69,2.99,2.75,2.35,2.77,4.03,6.35,5.08,9.55.92,2.8.7,6.91,2.51,9.35,4.1,2,6.9,1.35,8.43-1.95.85-1.73,1.34-3.57,1.48-5.49.22-2.71-.34-5.22-1.26-7.74-.12-.32-.12-.61-.03-.86h0c.08-.24.23-.42.42-.57.26-.19.6-.3.94-.31.25-.01.49.04.72.16.31.15.57.42.72.82.99,2.77,1.51,5.99,1.27,9.09Z"/>
      <path class="cls-4" d="m70.11,88.94c-2.71,6.53-12.61,8.3-18.72,9.16-1.02.14-1.45-1.22-.44-1.57,3.24-1.1,6.6-2.16,9.68-3.66,2.93-1.42,4.81-3.74,7.41-5.52.96-.65,2.54.46,2.07,1.59Z"/>
      <path class="cls-4" d="m100.61,114.98c-.36.73-1.04,1.31-2.03,1.43-6.95.84-14,1.06-20.98,1.55-6.19.42-13.36,1.96-19.44.54-.3-.07-.52-.2-.68-.37-.4-.42-.41-1.06-.13-1.59.17-.33.45-.6.81-.75,5.78-2.34,13.27-1.91,19.44-2.45,6.9-.6,13.83-1.46,20.76-1.73.07,0,.15-.01.22-.01,2.12-.08,2.74,1.93,2.03,3.38Z"/>
      <path class="cls-2" d="m96.3,89.15c-1.77-6.67-2.52-13.54-2.9-20.41-.41-7.37-.41-14.75-1-22.11-.53-6.66-2.32-13.77-2.37-20.5-.54.34-1.13.62-1.77.82-3.82,1.19-6.43-1.74-7.84-4.9-.18-.41-.36-.83-.53-1.24-.16.34-.46.62-.88.74-4.33,1.28-9.33.56-13.81.4-4.52-.17-9.02-.45-13.46-1.32-.58,2.32-1.69,4.47-3.45,6.18-2.99,2.91-7.53,3.68-10.43.18-1.88-2.29-2.12-5.39-2.77-8.16-.81-3.44-2.15-6.68-4.18-9.6-3.22-4.63-6.98-5-12.33-5.11-2.47-.04-10.96-2.11-12.5.71-1.05,1.89-.56,5.85-.67,7.98-.11,1.96-.21,3.92-.31,5.88-.23,4.56-.41,9.13-.55,13.7-.32,9.78-.49,19.57-.66,29.36-.16,9.13-.32,18.26-.6,27.39-.13,4.58-.37,9.14-.64,13.71-.24,3.85-.93,8.15.36,11.84.34-.31.82-.51,1.43-.52,9.51-.14,19.05.25,28.56.4,4.93.08,9.86.31,14.78.63,3.25.22,6.58.08,9.57,1.34.17-.33.45-.6.81-.75,5.78-2.34,13.27-1.91,19.44-2.45,6.9-.6,13.83-1.46,20.76-1.73,3.52-7.3-.14-15.23-2.06-22.46Zm-26.19-.21c-2.71,6.53-12.61,8.3-18.72,9.16-1.02.14-1.45-1.22-.44-1.57,3.24-1.1,6.6-2.16,9.68-3.66,2.93-1.42,4.81-3.74,7.41-5.52.96-.65,2.54.46,2.07,1.59Zm-3.05-18.1c-13.91-.53-29.36-10.67-29.85-25.61-.03-.85.42-1.35,1-1.53-.15-.07-.3-.14-.44-.22-.57-.31-.32-1.24.33-1.22,16.73.45,33.42.82,50.17-.07,1.05-.06,1.83.9,1.88,1.87.63,14.4-7.43,27.38-23.09,26.78Z"/>
      <path class="cls-3" d="m86.29,45.91c-.88,10.87-6.86,21.08-19.23,20.65-12-.42-24.88-8.84-26.52-21.33-.03-.24-.11-.46-.21-.65,6.25,2.14,14.2,1.2,20.49,1.28,8.49.12,16.99-.07,25.47.05Z"/>
      <path class="cls-4" d="m57.96,117.94c-.16.07-.32.13-.48.19-3.35,1.31-7.1.97-10.68,1.06-4.6.1-9.2.15-13.8.05-9.51-.21-19.06-.19-28.56-.7-1.18-.07-1.87-.85-2.06-1.73-.16-.76.05-1.59.63-2.12.34-.31.82-.51,1.43-.52,9.51-.14,19.05.25,28.56.4,4.93.08,9.86.31,14.78.63,3.25.22,6.58.08,9.57,1.34.21.08.41.17.61.27.42.2.44.94,0,1.13Z"/>
      <path class="cls-2" d="m49.42,17.21c-.14,1.92-.63,3.76-1.48,5.49-1.53,3.3-4.33,3.95-8.43,1.95-1.81-2.44-1.59-6.55-2.51-9.35-1.05-3.2-2.73-6.78-5.08-9.55,5.04.51,10.15.67,15.27.76.34.69.66,1.38.94,2.09h0c-.09.26-.09.55.03.87.92,2.52,1.48,5.03,1.26,7.74Z"/>
      <path class="cls-2" d="m90.55,16.93c-.08,1.96-.54,4.31-2.07,5.72-2.47,2.3-4.23-.09-5.3-2.22-2.18-4.32-4.75-10.09-9.36-12.38h0s0-.01,0-.01c-.05-.14-.11-.27-.18-.39-.19-.3-.47-.56-.7-.82-.13-.15-.26-.31-.4-.46,5.1-.37,10.18-.79,15.28-.56-.1.27-.11.59-.01.94,1.03,3.54,2.9,6.29,2.75,10.18Z"/>
      <path class="cls-1" d="m79.01,18.77c-4.09-1.13-8.63-.56-12.85-.69-4.65-.14-9.31-.45-13.96-.28.24-3.1-.28-6.32-1.27-9.09-.15-.4-.41-.67-.72-.82-.04-.45-.12-.9-.25-1.33,3.36.05,6.72.1,10.04.22,3.35.12,6.69-.02,10.01-.23.01.06.02.13.04.19.24.72.89,1.16,1.49,1.58.18.12.36.26.55.38h0c1.46,2.51,3.79,4.41,5.32,6.91.62,1.02,1.13,2.08,1.6,3.16Z"/>
      <path class="cls-4" d="m89.64,4.88c-.16.54-.61.98-1.26.95-.05,0-.11-.01-.16-.01-.14,0-.27-.01-.41-.01-5.1-.23-10.18.19-15.28.56h-.01c-.84.06-1.67.12-2.51.18-3.32.21-6.66.35-10.01.23-3.32-.12-6.68-.17-10.04-.22-.11,0-.22,0-.33-.01-.81-.01-1.62-.02-2.43-.04h-.01c-5.12-.09-10.23-.25-15.27-.76-.69-.06-1.37-.14-2.05-.22-.1,0-.19-.03-.28-.06-.78-.22-1.16-.93-1.09-1.59h0c.03-.34.17-.65.43-.88.22-.2.54-.33.94-.35,10.6-.41,21.47.82,32.07,1.29,6.07.27,11.19-.5,17.11-1.63,3.25-.62,6.45-.66,9.42.73h.02c.19.09.38.18.57.28.6.32.75.99.58,1.56Z"/>
    </g>
  </g>
</svg>