<?xml version="1.0" encoding="UTF-8"?>
<svg id="Layer_2" data-name="Layer 2" xmlns="http://www.w3.org/2000/svg" viewBox="0 0 56 75.57">
  <defs>
    <style>
      .cls-1 {
        fill: #f6e69a;
      }

      .cls-1, .cls-2, .cls-3 {
        stroke-width: 0px;
      }

      .cls-2 {
        fill: #231f20;
      }

      .cls-3 {
        fill: #d7effa;
      }
    </style>
  </defs>
  <g id="Layer_1-2" data-name="Layer 1">
    <g>
      <path class="cls-2" d="m44.6,22.9c-2.53-3.5-7.26-5.04-7.59-9.9-.18-2.64.44-4.7-1.54-6.83-1.97-2.11-5.47-3.17-8.1-4.05-5.83-1.97-12.67-3.69-17.94.26C4.87,5.81.24,10.51,0,16.52c-.03.75.33,1.26.83,1.53-.12,2.28.72,4.41,1.63,6.63,1.96,4.78,3.43,8.78,4.36,13.85.81,4.37,2.91,7.73,6.43,9.6,1.24.67,2.65,1.15,4.25,1.42.02,0,.03,0,.05,0,6.6,1.11,15.49-1.17,21.28-4.29,1.36-.73,2.62-1.64,3.72-2.69,1.07-.99,1.99-2.12,2.75-3.35,1.45-2.38,2.26-5.14,2.17-8.08-.09-2.96-1.15-5.87-2.87-8.25Zm-12.31,21.04c-5.76,1.7-14.29,4.25-19.32-.26-3.66-3.28-2.92-10.09-4.78-14.5-1.61-3.81-3.21-7.8-5.02-11.54.25-.28.42-.65.44-1.12.23-4.64,5.35-10.12,9.52-12.03,4.41-2.03,12.21.51,16.37,2.6,4.44,2.24,3.24,3.76,3.88,7.46.26,1.55.87,3.08,1.77,4.38,3.25,4.66,8.74,6.12,8.65,12.93-.1,6.62-5.78,10.39-11.51,12.08Z"/>
      <path class="cls-1" d="m43.8,31.86c-.1,6.62-5.78,10.39-11.51,12.08-5.76,1.7-14.29,4.25-19.32-.26-3.66-3.28-2.92-10.09-4.78-14.5-1.61-3.81-3.21-7.8-5.02-11.54.25-.28.42-.65.44-1.12.23-4.64,5.35-10.12,9.52-12.03,4.41-2.03,12.21.51,16.37,2.6,4.44,2.24,3.24,3.76,3.88,7.46.26,1.55.87,3.08,1.77,4.38,3.25,4.66,8.74,6.12,8.65,12.93Z"/>
      <path class="cls-2" d="m44.52,47.08c-.13-.08-.26-.13-.39-.15,2.87-3.02,4.81-6.39,1.17-7.7-.23-.09-.48-.16-.75-.23-2.24-.54-3.38,2.35-2,3.58.22.2.52.36.89.45-1.82-.44-4.35,3.19-5.66,4.21-1.88,1.47-3.91,2.76-5.98,3.95-1.78,1.01-6.88,3.26-9.1,1.61-.3-.22-.62-.33-.91-.33-1.05-.06-1.97,1.02-2.09,2.04-.04.31-.07.63-.1.94-.69,6.66-.33,13.18,5.77,17.07,5.43,3.46,13.19,4.71,18.16-.21,1.15-1.14,1.95-2.4,2.65-3.85,1.17-2.41,2.27-2.89,4.75-3.44,2.06-.46,3.86-.79,4.72-3.01,2.25-5.87-7.04-12.42-11.13-14.93Zm5.24,14.27c-1.11.52-2.56.07-3.76.75-1.28.72-1.96,1.93-2.68,3.15-1.37,2.33-2.31,4.39-4.97,5.55-3.1,1.35-6.74.57-9.67-.94-5.28-2.72-5.74-7.63-5.28-12.82,1.5.16,3.15.05,4.17-.01,3.75-.23,7.07-2.63,10.13-4.65.84-.55,2.97-2.14,5.01-4.06.03.23.15.45.36.65,1.84,1.69,3.73,3.34,5.41,5.2,1.94,2.12,5.15,5.39,1.28,7.18Z"/>
      <path class="cls-3" d="m49.76,61.35c-1.11.52-2.56.07-3.76.75-1.28.72-1.96,1.93-2.68,3.15-1.37,2.33-2.31,4.39-4.97,5.55-3.1,1.35-6.74.57-9.67-.94-5.28-2.72-5.74-7.63-5.28-12.82,1.5.16,3.15.05,4.17-.01,3.75-.23,7.07-2.63,10.13-4.65.84-.55,2.97-2.14,5.01-4.06.03.23.15.45.36.65,1.84,1.69,3.73,3.34,5.41,5.2,1.94,2.12,5.15,5.39,1.28,7.18Z"/>
      <path class="cls-1" d="m43.44,43.03c-1.82-.44-4.35,3.19-5.66,4.21-1.88,1.47-3.91,2.76-5.98,3.95-1.78,1.01-6.88,3.26-9.1,1.61-.3-.22-.62-.33-.91-.33-.12-.13-.28-.25-.47-.34-1.17-.57-2.41-1.25-3.38-2.13-.16-.14-.3-.29-.44-.45.02,0,.03,0,.05,0,6.6,1.11,15.49-1.17,21.28-4.29,1.36-.73,2.62-1.64,3.72-2.69.22.2.52.36.89.45Z"/>
      <path class="cls-2" d="m19.88,55.55c-.1-.03-.19-.06-.28-.1-1.62-.54-2.98-1.42-4.16-2.68-1.16-1.23-2.38-2.74-2.21-4.52,0-.04.01-.08.02-.12.15-.83,1.06-1.53,1.89-.97.97.65,1.58,1.56,2.36,2.39.14.16.28.31.44.45.97.88,2.21,1.56,3.38,2.13.19.09.35.21.47.34,1.18,1.18-.12,3.64-1.91,3.08Z"/>
    </g>
  </g>
</svg>